<svg width="159" height="158" viewBox="0 0 159 158" fill="none" xmlns="http://www.w3.org/2000/svg">
<circle cx="79.4998" cy="79" r="78.6052" fill="#23A26D" fill-opacity="0.12"/>
<path d="M78.0971 41.5693C57.4726 41.5693 40.666 58.3759 40.666 79.0004C40.666 99.6249 57.4726 116.431 78.0971 116.431C98.7216 116.431 115.528 99.6249 115.528 79.0004C115.528 58.3759 98.7216 41.5693 78.0971 41.5693ZM95.9891 70.3912L74.7657 91.6147C74.2417 92.1387 73.5305 92.4381 72.7819 92.4381C72.0332 92.4381 71.322 92.1387 70.798 91.6147L60.205 81.0217C59.1195 79.9362 59.1195 78.1395 60.205 77.054C61.2905 75.9685 63.0872 75.9685 64.1727 77.054L72.7819 85.6631L92.0214 66.4236C93.1069 65.3381 94.9036 65.3381 95.9891 66.4236C97.0746 67.5091 97.0746 69.2683 95.9891 70.3912Z" fill="#23A26D"/>
</svg>
